<svg width="390" height="443" viewBox="0 0 390 443" fill="none" xmlns="http://www.w3.org/2000/svg">
<rect width="390" height="443" fill="#E7C0FF"/>
<path d="M220.076 130.179C213.63 127.114 201.298 125.734 203.547 144.737C206.358 168.491 242.95 141.258 220.076 130.179Z" fill="#DDA6FF"/>
<path d="M181.381 97.0439C181.591 82.8073 190.552 85.1626 195.007 88.1198C200.849 90.766 202.436 95.6189 202.5 97.7147C204.037 110.673 181.119 114.84 181.381 97.0439Z" fill="#DDA6FF"/>
<path d="M172.458 125.741C172.833 112.618 182.612 112.462 187.455 114.024C192.329 115.524 195.109 119.961 195.89 121.991C197.765 132.77 192.141 134.645 190.266 136.051C188.392 137.457 171.989 142.143 172.458 125.741Z" fill="#DDA6FF"/>
<path d="M208.502 123.832C198.348 115.511 204.205 107.678 208.402 104.801C212.569 101.862 217.78 102.375 219.864 102.998C229.54 108.107 227.584 113.703 227.55 116.046C227.516 118.389 221.194 134.233 208.502 123.832Z" fill="#DDA6FF"/>
<path d="M162.396 89.4514C155.835 92.2633 146.65 100.605 162.396 111.478C182.08 125.069 185.829 79.6097 162.396 89.4514Z" fill="#6F1AA4"/>
<path d="M194.769 131.116C188.323 128.051 175.991 126.672 178.24 145.675C181.051 169.429 217.642 142.196 194.769 131.116Z" fill="#6F1AA4"/>
<path d="M178.569 113.916C178.779 99.6789 187.741 102.034 192.195 104.991C198.037 107.638 199.624 112.491 199.688 114.586C201.225 127.544 178.307 131.711 178.569 113.916Z" fill="#953BCC"/>
<path d="M206.811 164.288C193.832 157.467 199.643 149.922 204.17 147.002C208.978 142.599 214.077 143.325 216.026 144.238C228.543 148.78 223.034 172.814 206.811 164.288Z" fill="#953BCC"/>
<path d="M220.748 110.166C220.958 95.9294 229.919 98.2847 234.374 101.242C240.216 103.888 241.803 108.741 241.866 110.837C243.404 123.795 220.486 127.962 220.748 110.166Z" fill="#C170F2"/>
<path d="M195.835 87.4718C195.636 101.709 186.672 99.3594 182.216 96.4053C176.372 93.7631 174.781 88.9112 174.717 86.8155C173.17 73.8587 196.085 69.6759 195.835 87.4718Z" fill="#953BCC"/>
<path d="M199.988 63.9548C194.059 66.3883 185.759 73.6078 199.988 83.0175C217.775 94.7796 221.163 55.4374 199.988 63.9548Z" fill="#C170F2"/>
<path d="M215.734 86.449C213.352 71.8578 222.952 72.4027 228.049 74.499C234.51 75.9892 237.019 80.6185 237.466 82.7468C241.402 95.6683 218.71 104.688 215.734 86.449Z" fill="#C170F2"/>
<path d="M154.649 128.553C155.024 115.43 164.803 115.274 169.646 116.836C174.52 118.336 177.3 122.773 178.082 124.803C179.956 135.582 174.332 137.457 172.458 138.863C170.583 140.269 154.18 144.955 154.649 128.553Z" fill="#6F1AA4"/>
<path d="M223.071 133.668C223.41 122.077 232.261 121.939 236.644 123.319C241.055 124.644 243.572 128.563 244.279 130.357C245.975 139.878 240.886 141.534 239.189 142.776C237.492 144.018 222.647 148.158 223.071 133.668Z" fill="#953BCC"/>
<path d="M235.525 167.985C223.928 167.96 223.55 159.117 224.811 154.698C226.015 150.253 229.865 147.631 231.639 146.875C241.111 144.921 242.905 149.964 244.192 151.627C245.48 153.289 250.021 168.016 235.525 167.985Z" fill="#953BCC"/>
<path d="M196.828 102.308C197.203 89.1857 206.982 89.0295 211.824 90.5917C216.698 92.0913 219.479 96.5279 220.26 98.5587C222.135 109.338 216.511 111.212 214.636 112.618C212.762 114.024 196.359 118.711 196.828 102.308Z" fill="#953BCC"/>
<path d="M203.815 136.954C193.662 128.634 199.518 120.8 203.716 117.924C207.883 114.984 213.093 115.497 215.178 116.121C224.853 121.229 222.897 126.825 222.863 129.168C222.83 131.511 216.507 147.356 203.815 136.954Z" fill="#953BCC"/>
<path d="M175.93 73.0608C172.291 63.2763 159.508 47.7523 137.494 63.9325C143.124 73.8906 158.694 89.6577 175.93 73.0608Z" fill="#6DAF3F"/>
<path d="M180.607 71.3481C187.449 68.9529 198.399 60.2872 187.462 44.7863C180.472 48.5612 169.317 59.1584 180.607 71.3481Z" fill="#6DAF3F"/>
</svg>
